HIERARCHY
ROOT hip
{
  OFFSET 0 0 0
  CHANNELS 6 Xposition Yposition Zposition Zrotation Yrotation Xrotation
  JOINT abdomen
  {
    OFFSET 0 20.6881 -0.73152
    CHANNELS 3 Zrotation Xrotation Yrotation
    JOINT chest
    {
      OFFSET 0 11.7043 -0.48768
      CHANNELS 3 Zrotation Xrotation Yrotation
      JOINT neck
      {
        OFFSET 0 22.1894 -2.19456
        CHANNELS 3 Zrotation Xrotation Yrotation
        JOINT head
        {
          OFFSET -0.24384 7.07133 1.2192
          CHANNELS 3 Zrotation Xrotation Yrotation
          JOINT leftEye
          {
            OFFSET 4.14528 8.04674 8.04672
            CHANNELS 3 Zrotation Xrotation Yrotation
            End Site
            {
              OFFSET 1 0 0
            }
          }
          JOINT rightEye
          {
            OFFSET -3.6576 8.04674 8.04672
            CHANNELS 3 Zrotation Xrotation Yrotation
            End Site
            {
              OFFSET 1 0 0
            }
          }
        }
      }
      JOINT rCollar
      {
        OFFSET -2.68224 19.2634 -4.8768
        CHANNELS 3 Zrotation Xrotation Yrotation
        JOINT rShldr
        {
          OFFSET -8.77824 -1.95073 1.46304
          CHANNELS 3 Zrotation Xrotation Yrotation
          JOINT rForeArm
          {
            OFFSET -28.1742 -1.7115 0.48768
            CHANNELS 3 Zrotation Xrotation Yrotation
            JOINT rHand
            {
              OFFSET -22.5879 0.773209 7.07136
              CHANNELS 3 Zrotation Xrotation Yrotation
              JOINT rThumb1
              {
                OFFSET -1.2192 -0.487915 3.41376
                CHANNELS 3 Zrotation Xrotation Yrotation
                JOINT rThumb2
                {
                  OFFSET -3.37035 -0.52449 3.41376
                  CHANNELS 3 Zrotation Xrotation Yrotation
                  End Site
                  {
                    OFFSET -1.78271 -1.18214 1.43049
                  }
                }
              }
              JOINT rIndex1
              {
                OFFSET -7.75947 0.938293 5.60832
                CHANNELS 3 Zrotation Xrotation Yrotation
                JOINT rIndex2
                {
                  OFFSET -2.54057 -0.884171 1.56538
                  CHANNELS 3 Zrotation Xrotation Yrotation
                  End Site
                  {
                    OFFSET -1.62519 -0.234802 1.16502
                  }
                }
              }
              JOINT rMid1
              {
                OFFSET -8.24714 1.18213 3.41376
                CHANNELS 3 Zrotation Xrotation Yrotation
                JOINT rMid2
                {
                  OFFSET -3.10165 -0.590103 1.0647
                  CHANNELS 3 Zrotation Xrotation Yrotation
                  End Site
                  {
                    OFFSET -2.48547 -0.328903 0.83742
                  }
                }
              }
              JOINT rRing1
              {
                OFFSET -8.82822 0.546677 1.51678
                CHANNELS 3 Zrotation Xrotation Yrotation
                JOINT rRing2
                {
                  OFFSET -2.60934 -0.819778 -0.0198488
                  CHANNELS 3 Zrotation Xrotation Yrotation
                  End Site
                  {
                    OFFSET -2.33842 -0.294052 0.168128
                  }
                }
              }
              JOINT rPinky1
              {
                OFFSET -8.27202 -0.0477905 -0.4584
                CHANNELS 3 Zrotation Xrotation Yrotation
                JOINT rPinky2
                {
                  OFFSET -1.82734 -0.647385 -0.700984
                  CHANNELS 3 Zrotation Xrotation Yrotation
                  End Site
                  {
                    OFFSET -1.69225 -0.51767 -0.607171
                  }
                }
              }
            }
          }
        }
      }
      JOINT lCollar
      {
        OFFSET 2.68224 19.2634 -4.8768
        CHANNELS 3 Zrotation Xrotation Yrotation
        JOINT lShldr
        {
          OFFSET 8.77824 -1.95073 1.46304
          CHANNELS 3 Zrotation Xrotation Yrotation
          JOINT lForeArm
          {
            OFFSET 28.1742 -1.7115 0.48768
            CHANNELS 3 Zrotation Xrotation Yrotation
            JOINT lHand
            {
              OFFSET 22.5879 0.773209 7.07136
              CHANNELS 3 Zrotation Xrotation Yrotation
              JOINT lThumb1
              {
                OFFSET 1.2192 -0.487915 3.41376
                CHANNELS 3 Zrotation Xrotation Yrotation
                JOINT lThumb2
                {
                  OFFSET 3.37035 -0.52449 3.41376
                  CHANNELS 3 Zrotation Xrotation Yrotation
                  End Site
                  {
                    OFFSET 1.78271 -1.18214 1.43049
                  }
                }
              }
              JOINT lIndex1
              {
                OFFSET 7.75947 0.938293 5.60832
                CHANNELS 3 Zrotation Xrotation Yrotation
                JOINT lIndex2
                {
                  OFFSET 2.54057 -0.884171 1.56538
                  CHANNELS 3 Zrotation Xrotation Yrotation
                  End Site
                  {
                    OFFSET 1.62519 -0.234802 1.16502
                  }
                }
              }
              JOINT lMid1
              {
                OFFSET 8.24714 1.18213 3.41376
                CHANNELS 3 Zrotation Xrotation Yrotation
                JOINT lMid2
                {
                  OFFSET 3.10165 -0.590103 1.0647
                  CHANNELS 3 Zrotation Xrotation Yrotation
                  End Site
                  {
                    OFFSET 2.48547 -0.328903 0.83742
                  }
                }
              }
              JOINT lRing1
              {
                OFFSET 8.82822 0.546677 1.51678
                CHANNELS 3 Zrotation Xrotation Yrotation
                JOINT lRing2
                {
                  OFFSET 2.60934 -0.819778 -0.0198488
                  CHANNELS 3 Zrotation Xrotation Yrotation
                  End Site
                  {
                    OFFSET 2.33842 -0.294052 0.168128
                  }
                }
              }
              JOINT lPinky1
              {
                OFFSET 8.27202 -0.0477905 -0.4584
                CHANNELS 3 Zrotation Xrotation Yrotation
                JOINT lPinky2
                {
                  OFFSET 1.82734 -0.647385 -0.700984
                  CHANNELS 3 Zrotation Xrotation Yrotation
                  End Site
                  {
                    OFFSET 1.69225 -0.51767 -0.607171
                  }
                }
              }
            }
          }
        }
      }
    }
  }
  JOINT rButtock
  {
    OFFSET -8.77824 4.35084 1.2192
    CHANNELS 3 Zrotation Xrotation Yrotation
    JOINT rThigh
    {
      OFFSET 0 -1.70687 -2.19456
      CHANNELS 3 Zrotation Xrotation Yrotation
      JOINT rShin
      {
        OFFSET 0 -36.8199 0.73152
        CHANNELS 3 Zrotation Xrotation Yrotation
        JOINT rFoot
        {
          OFFSET 0.73152 -45.1104 -5.12064
          CHANNELS 3 Zrotation Xrotation Yrotation
          End Site
          {
            OFFSET -1.1221 -3.69964 12.103
          }
        }
      }
    }
  }
  JOINT lButtock
  {
    OFFSET 8.77824 4.35084 1.2192
    CHANNELS 3 Zrotation Xrotation Yrotation
    JOINT lThigh
    {
      OFFSET 0 -1.70687 -2.19456
      CHANNELS 3 Zrotation Xrotation Yrotation
      JOINT lShin
      {
        OFFSET 0 -36.8199 0.73152
        CHANNELS 3 Zrotation Xrotation Yrotation
        JOINT lFoot
        {
          OFFSET -0.73152 -45.1104 -5.12064
          CHANNELS 3 Zrotation Xrotation Yrotation
          End Site
          {
            OFFSET 1.1221 -3.69964 12.103
          }
        }
      }
    }
  }
}
MOTION
Frames:	4
Frame Time:	0.00833333
0.0 0.0 0.0 0.0 0.0 0.0 0.0 0.0 0.0 0.0 0.0 0.0 0.0 0.0 0.0 0.0 0.0 0.0 0.0 0.0 0.0 0.0 0.0 0.0 0.0 0.0 0.0 0.0 0.0 0.0 0.0 0.0 0.0 0.0 0.0 0.0 0.0 0.0 0.0 0.0 0.0 0.0 0.0 0.0 0.0 0.0 0.0 0.0 0.0 0.0 0.0 0.0 0.0 0.0 0.0 0.0 0.0 0.0 0.0 0.0 0.0 0.0 0.0 0.0 0.0 0.0 0.0 0.0 0.0 0.0 0.0 0.0 0.0 0.0 0.0 0.0 0.0 0.0 0.0 0.0 0.0 0.0 0.0 0.0 0.0 0.0 0.0 0.0 0.0 0.0 0.0 0.0 0.0 0.0 0.0 0.0 0.0 0.0 0.0 0.0 0.0 0.0 0.0 0.0 0.0 0.0 0.0 0.0 0.0 0.0 0.0 0.0 0.0 0.0 0.0 0.0 0.0 0.0 0.0 0.0 0.0 0.0 0.0 0.0 0.0 0.0 0.0 0.0 0.0 0.0 0.0 0.0
-1.0319 56.7569 0.6587 2.102745 -5.55733 5.067985 -7.604316 10.476572 -0.0 6.185705 -11.273783 -4.663385 -15.275627 28.392884 -73.078272 44.061142 -2.177914 32.657654 0.002813 -0.0 -0.00406 -0.002104 -0.0 0.00154 -3.76771 17.921065 4.640772 -126.947448 -3.568735 138.747218 -35.272698 -38.10293 -139.043427 119.017581 -61.875259 106.508324 55.518675 -43.150105 15.432369 -5.622452 -57.959173 -38.573882 -151.354724 -17.1585 121.131851 -163.1256 -19.395798 119.55446 -170.281648 -36.723047 145.34153 29.828744 -60.094267 7.063062 -71.926692 72.973045 89.772438 5.706344 14.972791 -2.558778 -87.574418 -50.205922 -85.929662 13.777075 32.57555 6.022109 157.64213 -66.710512 -175.898748 76.366549 -28.919233 62.869802 71.385471 38.720467 75.139841 162.485316 -12.770299 -151.550614 93.743413 37.964335 -53.548882 -19.347639 -27.65855 -23.149772 -10.211676 -18.050522 4.565568 -9.709106 5.684641 0.083124 -173.125277 -66.298043 -137.614897 19.005585 42.86914 -15.287006 -0.005809 0.918006 -0.288548 44.365958 77.333007 -57.510543 126.795518 -26.618038 124.511325 147.039845 12.422715 142.175394 -179.991431 75.749108 -0.00705 143.684735 6.136572 0.0 47.390548 67.065927 32.031095 -149.33673 -21.955847 112.331799 -179.991431 75.749108 -0.00705 -140.828544 41.465664 129.101738 85.880796 -42.662567 82.815879 137.665755 25.588874 137.287701
-1.6062 56.8928 1.0573000000000001 2.504369 -6.422958 5.395003 -7.945021 10.414888 1.11764 5.943825 -11.443319 -5.950775 -15.062674 27.106153 -66.825516 43.006585 -6.520185 28.563836 -0.003085 0.0 -0.002922 -0.002369 -0.0 0.001591 3.191543 -25.838922 -5.074331 -120.077666 -19.329892 170.970057 7.181517 -29.334581 -110.38826 154.834424 -36.989096 138.81605 102.158703 -51.172551 46.988538 -170.775611 -52.981508 134.749867 -153.033216 -20.284203 121.633118 -176.988138 -43.487682 115.190858 -125.643872 49.839553 115.273431 13.467381 -29.98333 -1.105775 -74.841281 72.961484 92.827796 3.080105 46.294045 2.808142 -12.007069 -23.631888 -11.403236 15.703134 43.916067 8.576212 157.79711 -22.115617 -165.46682 -136.67189 -29.59209 165.640853 -162.540676 17.787245 -53.718335 121.503283 45.158923 -105.67466 2.419722 2.371802 -0.420265 -138.714596 -82.331692 -64.402364 -60.4595 -70.524602 -15.710159 162.60906 -25.348244 -114.274014 36.036433 51.723303 -29.831597 171.961628 -31.377333 -143.990804 0.000486 0.022553 -0.007578 -10.745033 -6.50005 0.863463 -0.097469 0.258662 -0.090502 127.32358 -31.015653 125.734703 -0.001692 -0.000318 0.0 -66.660473 -49.640568 108.200407 22.360171 -80.213501 108.631793 -3.835487 -54.402169 89.328033 -0.001692 -0.000318 0.0 31.739795 -22.27767 -121.502279 -58.330531 -74.114882 3.97265 -122.542235 48.391876 -146.852682
-2.2173 57.053 1.5204 2.9237 -7.437489 5.692774 -5.793393 7.740589 -95.735923 8.442683 4.377536 89.517436 -1.079422 18.882764 25.908284 -20.888349 -28.731592 -72.522497 0.005211 0.0 0.002331 -0.001329 -0.0 0.00016 -78.727816 68.390692 81.807792 -26.0193 2.943813 46.776853 -144.497358 -22.534919 -90.454331 0.200649 16.506421 2.789157 -78.030788 38.689238 42.412563 -117.670073 -15.688775 78.673406 -27.421367 30.63916 20.099054 -5.755859 18.241373 3.435524 -89.835954 60.702628 81.262641 -1.827378 14.315811 2.750339 -31.709774 -66.109238 -46.282527 14.578926 -1.725367 -3.554806 -157.3275 57.246487 -150.513118 -128.850683 -28.183212 -125.637724 150.168522 21.535158 -155.275117 79.912631 25.492845 -33.64782 171.972427 -7.198872 87.482244 15.453807 -51.301266 14.105292 -99.081006 -51.215316 -44.800812 32.433965 -1.120144 10.959603 172.89547 -51.894221 -120.181742 162.596959 -24.475215 -118.410311 160.673508 -6.667698 -143.245519 111.661695 59.698155 -102.15356 0.000939 0.022712 -0.006554 -6.144932 33.722808 -5.591296 23.841818 -36.725246 22.935565 174.758294 79.106676 141.95422 -179.998605 75.750198 -0.001439 143.594592 3.187991 -180.0 -25.537797 -75.949907 98.359237 174.183956 -30.296493 -27.042144 -179.99213 75.750198 -0.006476 -137.831193 43.946309 -107.030275 -71.360353 -14.292751 57.471469 78.855115 40.31929 13.785265
